<svg viewBox="0 0 36 36" fill="none" xmlns="http://www.w3.org/2000/svg" aria-hidden="true">
  <path d="M7.545 20.895L8.606 20.932C8.614 20.726 8.56 20.522 8.453 20.345C8.346 20.168 8.19 20.027 8.003 19.937L7.545 20.895ZM27.366 21.587L26.975 20.6C26.783 20.676 26.617 20.806 26.498 20.975C26.379 21.144 26.311 21.344 26.304 21.55L27.366 21.587ZM23.139 10.689C23.13 10.971 23.232 11.245 23.424 11.451C23.616 11.657 23.883 11.778 24.164 11.788C24.446 11.798 24.72 11.696 24.926 11.504C25.132 11.312 25.253 11.045 25.263 10.764L23.139 10.689ZM10.397 10.244C10.387 10.526 10.49 10.8 10.682 11.006C10.874 11.212 11.14 11.333 11.422 11.343C11.704 11.353 11.978 11.251 12.184 11.059C12.39 10.867 12.511 10.6 12.521 10.319L10.397 10.244ZM10.887 6.363C8.728 6.288 6.627 7.073 5.047 8.547C3.467 10.02 2.537 12.061 2.462 14.22L4.586 14.294C4.641 12.698 5.329 11.19 6.497 10.101C7.664 9.012 9.217 8.431 10.813 8.487L10.887 6.363ZM24.971 8.981C26.567 9.037 28.075 9.724 29.164 10.892C30.253 12.06 30.834 13.613 30.778 15.209L32.902 15.283C32.977 13.124 32.192 11.023 30.718 9.443C29.245 7.863 27.204 6.933 25.045 6.858L24.971 8.981ZM21.373 30.827L12.878 30.531L12.804 32.655L21.299 32.951L21.373 30.827ZM12.878 30.531C11.513 30.483 10.596 30.448 9.915 30.332C9.266 30.222 8.991 30.061 8.813 29.869L7.26 31.32C7.882 31.987 8.675 32.276 9.56 32.428C10.414 32.574 11.499 32.609 12.804 32.655L12.878 30.531ZM6.314 25.695C6.268 27 6.228 28.084 6.314 28.946C6.402 29.84 6.637 30.652 7.259 31.319L8.813 29.87C8.635 29.68 8.494 29.394 8.427 28.737C8.361 28.051 8.39 27.134 8.438 25.769L6.314 25.695ZM26.135 26.387C26.087 27.752 26.053 28.669 25.937 29.35C25.826 29.999 25.665 30.274 25.473 30.452L26.924 32.005C27.591 31.383 27.881 30.59 28.032 29.705C28.178 28.851 28.213 27.766 28.259 26.461L26.135 26.387ZM21.299 32.951C22.604 32.997 23.689 33.037 24.551 32.951C25.444 32.863 26.257 32.628 26.924 32.005L25.474 30.452C25.284 30.63 24.998 30.771 24.341 30.838C23.655 30.904 22.738 30.875 21.373 30.827L21.299 32.951ZM10.813 8.487C11.115 8.497 11.411 8.53 11.7 8.583L12.083 6.493C11.688 6.421 11.288 6.378 10.887 6.363L10.813 8.487ZM18.114 2.363C16.561 2.308 15.029 2.742 13.735 3.603C12.44 4.463 11.448 5.708 10.898 7.162L12.884 7.914C13.277 6.876 13.986 5.987 14.911 5.372C15.836 4.757 16.93 4.447 18.04 4.487L18.114 2.363ZM10.898 7.162C10.612 7.922 10.451 8.724 10.422 9.536L12.546 9.611C12.567 9.012 12.686 8.442 12.886 7.914L10.898 7.162ZM25.045 6.858C24.638 6.843 24.238 6.859 23.843 6.904L24.081 9.015C24.376 8.981 24.674 8.969 24.971 8.981L25.045 6.858ZM18.04 4.487C19.15 4.525 20.22 4.91 21.099 5.588C21.979 6.266 22.624 7.202 22.943 8.266L24.978 7.653C24.53 6.165 23.627 4.854 22.396 3.905C21.165 2.957 19.668 2.417 18.114 2.363L18.04 4.487ZM22.943 8.266C23.106 8.806 23.185 9.383 23.164 9.981L25.288 10.056C25.317 9.222 25.206 8.414 24.978 7.653L22.943 8.266ZM8.438 25.769L8.606 20.932L6.483 20.858L6.314 25.695L8.438 25.769ZM8.003 19.937C6.946 19.432 6.06 18.628 5.453 17.626C4.846 16.623 4.544 15.465 4.586 14.294L2.462 14.22C2.406 15.804 2.814 17.37 3.636 18.726C4.457 20.082 5.656 21.169 7.086 21.853L8.003 19.937ZM26.304 21.55L26.135 26.387L28.259 26.461L28.428 21.625L26.304 21.55ZM30.778 15.209C30.738 16.38 30.356 17.514 29.681 18.472C29.005 19.429 28.065 20.169 26.975 20.6L27.757 22.575C29.231 21.992 30.503 20.992 31.417 19.696C32.331 18.401 32.847 16.867 32.902 15.283L30.778 15.209ZM23.164 9.981L23.139 10.689L25.263 10.764L25.288 10.056L23.164 9.981ZM10.422 9.536L10.397 10.244L12.521 10.319L12.546 9.611L10.422 9.536Z" fill="#F0C321"/>
  <path d="M7.376 25.732L27.197 26.424" stroke="#F0C321" stroke-width="1.5" stroke-linecap="round" stroke-linejoin="round"/>
</svg>
