<svg viewBox="0 0 34 34" fill="none" xmlns="http://www.w3.org/2000/svg" aria-hidden="true">
  <path d="M18.417 8.5V15.583C18.417 15.959 18.566 16.319 18.832 16.585C19.097 16.851 19.458 17 19.833 17H28.478C28.666 17 28.852 17.037 29.025 17.11C29.198 17.182 29.355 17.289 29.487 17.422L30.759 18.711C31.02 18.976 31.167 19.334 31.167 19.706V24.083C31.167 24.459 31.018 24.819 30.752 25.085C30.486 25.351 30.126 25.5 29.75 25.5H25.5" stroke="#F0C321" stroke-width="2" stroke-linecap="round" stroke-linejoin="round"/>
  <path d="M7.083 25.5H4.25C3.874 25.5 3.514 25.351 3.248 25.085C2.983 24.819 2.833 24.459 2.833 24.083V11.333C2.833 10.582 3.132 9.861 3.663 9.33C4.195 8.799 4.915 8.5 5.667 8.5H22.667C24.225 8.5 25.642 9.633 26.067 11.05L27.733 17M12.75 25.5H19.833" stroke="#F0C321" stroke-width="2" stroke-linecap="round" stroke-linejoin="round"/>
  <path d="M22.667 28.333C24.232 28.333 25.5 27.065 25.5 25.5C25.5 23.935 24.232 22.667 22.667 22.667C21.102 22.667 19.833 23.935 19.833 25.5C19.833 27.065 21.102 28.333 22.667 28.333Z" stroke="#F0C321" stroke-width="2" stroke-linecap="round" stroke-linejoin="round"/>
  <path d="M9.917 28.333C11.482 28.333 12.75 27.065 12.75 25.5C12.75 23.935 11.482 22.667 9.917 22.667C8.352 22.667 7.083 23.935 7.083 25.5C7.083 27.065 8.352 28.333 9.917 28.333Z" stroke="#F0C321" stroke-width="2" stroke-linecap="round" stroke-linejoin="round"/>
</svg>
