<svg viewBox="0 0 32 32" fill="none" xmlns="http://www.w3.org/2000/svg" aria-hidden="true">
  <path d="M2.667 29.333L21.333 10.667M21.333 10.667H24C25.415 10.667 26.771 10.105 27.771 9.105C28.771 8.105 29.333 6.748 29.333 5.333V2.667H26.667C25.252 2.667 23.896 3.229 22.896 4.229C21.895 5.229 21.333 6.585 21.333 8V10.667ZM4.627 16.707L6.667 14.667L8.707 16.707C9.578 17.581 10.067 18.766 10.067 20C10.067 21.235 9.578 22.419 8.707 23.293L6.667 25.333L4.627 23.293C3.755 22.419 3.266 21.235 3.266 20C3.266 18.766 3.755 17.581 4.627 16.707ZM9.96 11.373L12 9.333L14.04 11.373C14.911 12.248 15.4 13.432 15.4 14.667C15.4 15.901 14.911 17.085 14.04 17.96L12 20L9.96 17.96C9.089 17.085 8.6 15.901 8.6 14.667C8.6 13.432 9.089 12.248 9.96 11.373ZM15.293 6.04L17.333 4L19.373 6.04C20.245 6.915 20.734 8.099 20.734 9.333C20.734 10.568 20.245 11.752 19.373 12.627L17.333 14.667L15.293 12.627C14.422 11.752 13.933 10.568 13.933 9.333C13.933 8.099 14.422 6.915 15.293 6.04Z" stroke="#F0C321" stroke-width="2" stroke-linecap="round" stroke-linejoin="round"/>
  <path d="M15.293 23.293L17.333 25.333L15.293 27.373C14.419 28.245 13.235 28.734 12 28.734C10.766 28.734 9.581 28.245 8.707 27.373L6.667 25.333L8.707 23.293C9.581 22.422 10.766 21.933 12 21.933C13.235 21.933 14.419 22.422 15.293 23.293ZM20.627 17.96L22.667 20L20.627 22.04C19.752 22.911 18.568 23.4 17.333 23.4C16.099 23.4 14.915 22.911 14.04 22.04L12 20L14.04 17.96C14.915 17.089 16.099 16.6 17.333 16.6C18.568 16.6 19.752 17.089 20.627 17.96ZM25.96 12.627L28 14.667L25.96 16.707C25.085 17.578 23.901 18.067 22.667 18.067C21.432 18.067 20.248 17.578 19.373 16.707L17.333 14.667L19.373 12.627C20.248 11.755 21.432 11.266 22.667 11.266C23.901 11.266 25.085 11.755 25.96 12.627Z" stroke="#F0C321" stroke-width="2" stroke-linecap="round" stroke-linejoin="round"/>
</svg>
