<svg preserveAspectRatio="none" width="100%" height="100%" overflow="visible" style="display: block;" viewBox="0 0 95.4331 83.0049" fill="none" xmlns="http://www.w3.org/2000/svg">
<g id="Layer 1">
<path id="Vector" d="M87.5651 24.9192L88.3498 26.386L89.1272 25.9756L87.8878 23.6588L82.4487 26.5317L83.6881 28.8486L84.4654 28.4381L83.6807 26.9713L85.2746 26.131L85.8979 27.2967L86.6753 26.8863L86.0519 25.7206L87.5676 24.9192H87.5651ZM82.4585 17.4684L83.0965 18.2504L78.9921 21.5508L79.6008 22.2988L83.7052 18.9984L84.3432 19.7804L85.0277 19.2291L83.1454 16.9196L82.4609 17.4709L82.4585 17.4684ZM76.8384 12.4875C76.6673 12.6697 76.5427 12.8567 76.4595 13.0437C76.3764 13.2331 76.3227 13.4201 76.2982 13.6095C76.2738 13.7989 76.2664 13.9859 76.2762 14.1729C76.286 14.3575 76.2982 14.5421 76.3129 14.7193C76.33 14.8991 76.3349 15.0715 76.33 15.2391C76.3275 15.4066 76.3007 15.5669 76.2518 15.7175C76.2029 15.868 76.1173 16.0089 75.9951 16.1425C75.8973 16.2469 75.802 16.3197 75.7115 16.3562C75.6211 16.3926 75.5355 16.3999 75.4548 16.378C75.3742 16.3562 75.2935 16.31 75.2202 16.2396C75.1444 16.1716 75.0906 16.0963 75.0637 16.0162C75.0368 15.936 75.0368 15.851 75.0662 15.7612C75.0955 15.6689 75.159 15.5718 75.2593 15.4649L75.5599 15.1443L74.8901 14.5251L74.631 14.7995C74.4061 15.0399 74.2546 15.2779 74.1788 15.5183C74.1006 15.7588 74.0981 15.9968 74.1739 16.2299C74.2472 16.463 74.4012 16.6865 74.6335 16.9026C74.8657 17.1163 75.1004 17.2523 75.3399 17.3106C75.5795 17.3664 75.8166 17.3494 76.0538 17.2547C76.2909 17.16 76.5207 16.9949 76.7456 16.7545C76.9167 16.5723 77.0413 16.3853 77.1245 16.1983C77.2076 16.0089 77.2614 15.8219 77.2858 15.6325C77.3102 15.443 77.3176 15.256 77.3078 15.0691C77.3005 14.8845 77.2858 14.6999 77.2711 14.5226C77.254 14.3429 77.2491 14.1705 77.254 14.0029C77.254 13.8354 77.2834 13.6751 77.3322 13.5245C77.3811 13.3739 77.4667 13.2307 77.5889 13.0995C77.738 12.9417 77.8749 12.8567 78.0021 12.8445C78.1267 12.8324 78.2465 12.8785 78.359 12.9878C78.4739 13.0922 78.5301 13.2064 78.5276 13.3302C78.5227 13.4565 78.447 13.5974 78.3003 13.7576L78.1267 13.9422L78.7965 14.5615L78.9285 14.4206C79.1534 14.1802 79.305 13.9398 79.3857 13.7018C79.4639 13.4614 79.4663 13.2258 79.3954 12.9951C79.3221 12.7644 79.173 12.5434 78.9432 12.3297C78.7134 12.1184 78.4787 11.9848 78.2441 11.929C78.0069 11.8731 77.7698 11.8925 77.5351 11.9872C77.3005 12.082 77.0707 12.2495 76.8458 12.4899L76.8384 12.4875ZM71.7269 8.27159L70.4704 11.1421L69.6784 10.6515L71.7245 8.27159H71.7269ZM72.9467 7.74945L71.744 7.00389L67.6445 11.674L68.3974 12.1427L69.1308 11.2903L70.1379 11.9168L69.6881 12.9465L70.5168 13.4614L72.9443 7.75188L72.9467 7.74945ZM64.0266 4.06294L64.9506 4.47093L62.8019 9.26243L63.6868 9.65342L65.8355 4.86192L66.7596 5.26992L67.1165 4.47093L64.3835 3.26152L64.0266 4.06051V4.06294ZM54.9671 2.13954C54.9157 2.38239 54.9035 2.60825 54.9304 2.80981C54.9573 3.01381 55.0086 3.20324 55.0869 3.37809C55.1626 3.55295 55.2531 3.71809 55.3582 3.87108C55.4609 4.02651 55.5684 4.17708 55.6736 4.32036C55.7811 4.46607 55.8765 4.60936 55.9571 4.75507C56.0427 4.90078 56.1013 5.05135 56.138 5.20678C56.1747 5.3622 56.1747 5.52491 56.138 5.7022C56.1087 5.84305 56.0622 5.95234 56.006 6.03005C55.9498 6.10776 55.8789 6.15633 55.7982 6.18062C55.7176 6.20248 55.6247 6.20248 55.5244 6.18062C55.4242 6.16119 55.3411 6.12476 55.2751 6.06891C55.2091 6.01548 55.1675 5.94262 55.1455 5.84791C55.1235 5.7532 55.1284 5.63663 55.1578 5.49334L55.2482 5.06592L54.3535 4.8765L54.2753 5.2432C54.2068 5.56377 54.2019 5.84548 54.2606 6.09319C54.3193 6.33847 54.4391 6.54247 54.6248 6.70518C54.8082 6.86547 55.0575 6.97961 55.3655 7.04761C55.676 7.11075 55.9473 7.10832 56.182 7.03546C56.4167 6.96018 56.6123 6.82418 56.7663 6.62261C56.9203 6.42104 57.0303 6.16119 57.0987 5.84062C57.1501 5.59777 57.1623 5.37192 57.1354 5.17035C57.1085 4.96635 57.0572 4.77693 56.9789 4.60207C56.9032 4.42722 56.8127 4.26208 56.7076 4.10908C56.6049 3.95365 56.4974 3.80308 56.3923 3.6598C56.2847 3.51409 56.1894 3.37081 56.1087 3.22509C56.0231 3.08181 55.9645 2.92881 55.9278 2.77339C55.8911 2.61796 55.8911 2.45282 55.9278 2.27796C55.9742 2.06668 56.0476 1.9234 56.1478 1.84811C56.248 1.77526 56.3751 1.7534 56.5267 1.7874C56.6783 1.81654 56.7858 1.88697 56.8469 1.99625C56.9081 2.10554 56.9178 2.26582 56.8738 2.47953L56.82 2.72724L57.7148 2.91667L57.7539 2.72967C57.8223 2.40911 57.8272 2.12497 57.7734 1.87969C57.7172 1.6344 57.5974 1.43041 57.4141 1.27012C57.2332 1.10984 56.9887 0.998127 56.6807 0.930128C56.3727 0.866987 56.1038 0.871844 55.8716 0.9447C55.6393 1.01998 55.4462 1.15598 55.2947 1.35755C55.1431 1.55912 55.0331 1.8214 54.9646 2.14197L54.9671 2.13954ZM47.0296 0.00242853L46.9465 4.66279C46.9416 4.99064 46.9905 5.26749 47.0956 5.4982C47.2008 5.72891 47.3572 5.90619 47.5699 6.03005C47.7826 6.1539 48.0466 6.21705 48.3619 6.22433C48.6797 6.22919 48.9462 6.17333 49.1613 6.05676C49.3764 5.94019 49.5426 5.76777 49.6551 5.53949C49.7675 5.31363 49.8262 5.03678 49.8335 4.70893L49.9142 0.0485707L48.9999 0.0315709L48.9168 4.75264C48.9144 4.89835 48.8924 5.01249 48.8484 5.09992C48.8068 5.18735 48.7482 5.24806 48.6724 5.28692C48.5966 5.32577 48.5061 5.34277 48.4035 5.34035C48.3008 5.34035 48.2128 5.31849 48.137 5.27963C48.0637 5.23835 48.0075 5.17521 47.9683 5.08778C47.9292 5.00035 47.9097 4.88378 47.9121 4.73807L47.9952 0.0169997L47.0272 1.41964e-10L47.0296 0.00242853ZM39.6544 5.23835C39.6935 5.56377 39.7864 5.83091 39.9258 6.04462C40.0651 6.25833 40.2509 6.41133 40.4831 6.50604C40.7154 6.59833 40.9892 6.62504 41.3021 6.58861C41.6174 6.54976 41.8765 6.45747 42.077 6.31176C42.2799 6.16605 42.4217 5.97176 42.5048 5.73134C42.5879 5.49092 42.6123 5.20921 42.5708 4.88378L42.1797 1.72426C42.1405 1.39884 42.0476 1.12927 41.9083 0.915557C41.769 0.701846 41.5832 0.548849 41.351 0.456564C41.1187 0.36428 40.8449 0.337566 40.532 0.373994C40.2167 0.412851 39.9576 0.505135 39.7571 0.650847C39.5542 0.796559 39.4124 0.988413 39.3293 1.22884C39.2462 1.46926 39.2217 1.7534 39.2633 2.07883L39.6544 5.23835ZM40.2167 1.90154C40.1922 1.6854 40.2167 1.52755 40.2925 1.42312C40.3707 1.31869 40.4856 1.25798 40.6396 1.24341C40.7936 1.22155 40.9207 1.25312 41.0209 1.33569C41.1187 1.41826 41.1847 1.5664 41.2116 1.78254L41.6174 5.06349C41.6419 5.27963 41.6174 5.43749 41.5416 5.54191C41.4634 5.64634 41.3485 5.70705 41.1945 5.72163C41.0405 5.74348 40.9134 5.71191 40.8132 5.62934C40.7154 5.54677 40.6494 5.39863 40.6225 5.18249L40.2167 1.90154ZM34.7531 7.94859L35.6869 7.70088L34.0931 1.78983L33.1568 2.03754L34.7507 7.94859H34.7531ZM29.006 7.67174L29.3629 8.47073C29.4216 8.60429 29.4509 8.71844 29.4485 8.81315C29.4485 8.91029 29.4191 8.99043 29.3678 9.056C29.3164 9.12157 29.2407 9.175 29.1478 9.21629C29.0549 9.26 28.9644 9.277 28.8813 9.27214C28.7958 9.26728 28.72 9.23329 28.6466 9.17014C28.5733 9.107 28.5073 9.00986 28.4486 8.87629L27.0968 5.85762C27.0088 5.65848 26.9868 5.4982 27.0283 5.37677C27.0724 5.25535 27.1652 5.16306 27.307 5.10235C27.4488 5.03678 27.5784 5.02949 27.6982 5.07806C27.8179 5.12906 27.9231 5.25292 28.0135 5.44963L28.2824 6.04948L29.1184 5.68034L28.874 5.13635C28.7395 4.83764 28.5757 4.6045 28.3826 4.43936C28.1895 4.27422 27.9719 4.18194 27.7275 4.15765C27.483 4.13579 27.2166 4.18679 26.9257 4.3155C26.6372 4.44422 26.4197 4.60693 26.273 4.80121C26.1263 4.99792 26.0505 5.22135 26.0456 5.47392C26.0408 5.72648 26.1043 6.00334 26.2388 6.30205L27.5417 9.209C27.6762 9.50771 27.8399 9.73842 28.0306 9.90356C28.2237 10.0687 28.4413 10.1634 28.6882 10.1877C28.9327 10.2096 29.1991 10.1586 29.49 10.0298C29.7785 9.90113 29.996 9.73842 30.1427 9.54171C30.2894 9.345 30.3652 9.11914 30.37 8.86658C30.3749 8.61401 30.3114 8.33958 30.1769 8.03845L29.8445 7.29532L29.0084 7.66445L29.006 7.67174ZM23.6549 13.2744L24.4762 12.7644L21.2128 7.5746L20.3914 8.08459L23.6549 13.2744ZM18.4724 17.5049L20.345 15.7709L19.7436 15.1322L18.5775 16.2105L14.9767 12.3734L14.2678 13.0291L18.47 17.5049H18.4724ZM10.4274 18.5807L11.4786 17.2887L10.7941 16.7375L9.13182 18.775L13.9182 22.6267L15.5805 20.5891L14.8961 20.0378L13.8449 21.3298L12.4417 20.203L13.2778 19.1781L12.5933 18.6269L11.7573 19.6517L10.4225 18.5783L10.4274 18.5807ZM6.27659 24.9216C6.32303 24.8318 6.3817 24.7613 6.45259 24.7152C6.52104 24.669 6.60416 24.6496 6.69949 24.6569C6.79483 24.6642 6.90728 24.7006 7.03684 24.7686L9.86518 26.2622C9.99474 26.3302 10.0876 26.403 10.1463 26.4783C10.205 26.5536 10.2343 26.6313 10.2343 26.7163C10.2343 26.8013 10.2099 26.8863 10.161 26.9762L9.90429 27.4546L6.01991 25.4025L6.27659 24.924V24.9216ZM10.2294 28.7126L10.9481 27.3696C11.173 26.9446 11.2292 26.5682 11.1119 26.2355C10.9946 25.9052 10.7183 25.6235 10.2808 25.3952L7.53064 23.9429C7.09306 23.7122 6.70683 23.6418 6.36459 23.7292C6.02235 23.8191 5.73879 24.0741 5.509 24.4991L4.7903 25.842L10.2294 28.715V28.7126Z" fill="var(--fill-0, white)"/>
<path id="Vector_2" d="M69.3752 69.5751L70.3775 68.6134L69.869 68.0888L68.2874 69.6066L71.854 73.2762L73.4356 71.7583L72.9272 71.2338L71.9249 72.1955L70.8811 71.1221L71.678 70.3571L71.1695 69.8325L70.3726 70.5975L69.3801 69.5751H69.3752ZM64.1928 73.6332C64.2637 73.587 64.3346 73.5603 64.403 73.553C64.4715 73.5482 64.5399 73.5652 64.6084 73.6089C64.6744 73.6526 64.7428 73.723 64.8088 73.825L66.2633 76.0495C66.3293 76.1515 66.3684 76.2414 66.3807 76.3191C66.3929 76.3993 66.3807 76.4672 66.3489 76.528C66.3147 76.5887 66.2609 76.6421 66.19 76.6882L65.8086 76.9335L63.8115 73.8784L64.1928 73.6332ZM65.53 77.9827L66.6007 77.293C66.938 77.0744 67.1311 76.8194 67.1825 76.5328C67.2314 76.2438 67.1434 75.9305 66.9185 75.5857L65.5055 73.4219C65.2806 73.0794 65.0264 72.8706 64.7428 72.7977C64.4568 72.7249 64.1464 72.7977 63.8066 73.0163L62.7359 73.706L65.5324 77.9827H65.53ZM57.8932 76.9165L59.2255 79.1629L58.5043 79.4519L57.8932 76.9165ZM58.1377 75.8431L57.0425 76.2827L58.2037 81.317L58.8906 81.0426L58.6706 80.1319L59.5897 79.7628L60.0688 80.569L60.8242 80.2655L58.1401 75.8431H58.1377ZM50.0853 77.7787L48.973 77.9341L49.6869 82.9854L50.3836 82.8883L49.8775 79.3159L50.9776 82.8033L51.7329 82.6989L51.7721 79.0002L52.2854 82.6212L53.0408 82.5167L52.327 77.4654L51.2147 77.6208L51.178 81.283L50.0829 77.7787H50.0853ZM43.507 78.4829L44.8858 78.6748L44.9884 77.9535L42.8103 77.65L42.0965 82.7013L44.2746 83.0049L44.3773 82.2836L42.9986 82.0917L43.2088 80.6128L44.3064 80.7658L44.4091 80.0445L43.3115 79.8915L43.5095 78.4854L43.507 78.4829ZM36.3054 76.086L35.2518 75.7047L33.4966 80.4962L34.1591 80.7342L35.4009 77.3464L34.7238 80.9406L35.44 81.2005L37.2221 77.9535L35.9632 81.3899L36.6794 81.6497L38.4346 76.8582L37.381 76.477L35.6185 79.6923L36.3079 76.0884L36.3054 76.086ZM27.2361 75.8528C27.087 76.0811 26.999 76.3021 26.9746 76.511C26.9501 76.7223 26.9843 76.919 27.0821 77.1011C27.1799 77.2832 27.3413 77.446 27.5613 77.5892C27.7837 77.7301 27.9988 77.8102 28.2066 77.8248C28.4144 77.8394 28.61 77.7908 28.7933 77.6815C28.9767 77.5722 29.1429 77.4047 29.292 77.1764L30.7465 74.9518C30.8956 74.7236 30.9836 74.5026 31.0081 74.2913C31.0325 74.08 30.9983 73.8857 30.9005 73.7012C30.8027 73.519 30.6414 73.3563 30.4214 73.213C30.1989 73.0722 29.9838 72.992 29.776 72.9774C29.5682 72.9629 29.3751 73.0114 29.1893 73.1183C29.006 73.2276 28.8398 73.3952 28.6882 73.6259L27.2337 75.8504L27.2361 75.8528ZM29.3947 74.0241C29.4949 73.8736 29.5976 73.7861 29.7027 73.7594C29.8078 73.7351 29.9154 73.757 30.0205 73.8299C30.1305 73.8979 30.194 73.9853 30.2136 74.0897C30.2307 74.1966 30.194 74.3229 30.0938 74.4759L28.5831 76.7854C28.4829 76.936 28.3802 77.0234 28.2751 77.0501C28.17 77.0744 28.0624 77.0525 27.9573 76.9797C27.8473 76.9117 27.7837 76.8243 27.7642 76.7174C27.747 76.6105 27.7837 76.4842 27.8839 76.3313L29.3947 74.0217V74.0241ZM22.5646 70.7723L23.2246 71.4038L21.6968 72.975L22.2884 73.5409L25.855 69.8714L25.2634 69.3055L23.7355 70.8768L23.0755 70.2429L24.6034 68.6717L24.024 68.1155L20.4574 71.785L21.0368 72.3412L22.5646 70.7699V70.7723Z" fill="var(--fill-0, white)"/>
<path id="Vector_3" fill-rule="evenodd" clip-rule="evenodd" d="M57.925 37.9653C59.0739 36.6684 60.9709 32.7609 59.4602 33.2661C57.375 33.963 57.7539 36.6077 57.925 37.9653ZM69.8055 50.8851C69.4901 52.7259 69.0672 55.3973 67.9721 54.8922C66.4589 54.1952 67.9721 51.8783 69.8055 50.8851ZM69.1186 43.0603C71.6658 37.091 72.2231 44.8502 69.5513 46.0207C68.8399 46.3316 68.4219 44.6923 69.1186 43.0603ZM64.425 34.524C65.4786 34.524 66.3318 35.306 66.3318 36.2726C66.3318 37.2391 65.4786 38.0211 64.425 38.0211C63.3714 38.0211 62.5183 37.2391 62.5183 36.2726C62.5183 35.306 63.3714 34.524 64.425 34.524ZM37.161 40.3161L36.9948 43.121C37.1341 43.3736 37.5668 43.3226 37.6132 42.9705C37.9115 40.7289 39.52 39.3641 41.4316 38.9683C45.5189 38.3198 46.4674 42.8588 42.1112 44.8696C38.9822 47.2107 44.2209 46.538 46.2547 43.5946L47.6481 40.3525C48.6724 37.9726 51.2611 37.6034 50.8016 40.0247L50.4349 41.9553C51.3076 42.6451 52.0678 43.7549 52.5983 45.7074L54.6517 43.5946L54.9817 41.0811L53.5517 40.9354C52.569 41.0009 52.5225 39.08 53.4784 38.9318L55.1651 38.8954C55.0746 36.9161 55.3778 34.6455 56.9618 32.4112C58.5483 30.1745 62.2812 30.6724 61.912 33.6498C61.8363 36.105 60.9122 37.8973 58.9786 38.8954H61.1396C61.7751 38.8808 61.8558 40.9718 61.0198 41.0957L57.5485 41.1539L57.5119 44.8696C57.749 46.4967 60.8804 46.4117 61.6554 44.5417L62.2787 39.8061C62.5378 38.3125 64.9824 38.3781 65.0288 40.0611L64.2588 44.651C63.941 46.0499 65.2977 46.47 66.0922 45.0517C66.1851 42.6742 66.806 40.6245 68.8326 39.4734C70.9006 38.298 73.2841 38.2858 74.0859 40.7168C74.5821 42.2176 73.8928 43.8739 73.2425 45.4524L75.1493 44.396C74.9195 42.0063 75.3864 39.2208 78.0827 38.8225C83.7174 37.9896 82.8398 44.0269 79.4761 44.7239C76.0049 45.5739 80.6568 47.4681 81.5295 44.7603C82.368 43.8399 83.5072 44.3207 83.0329 46.2174C81.9989 49.4134 76.9802 48.8451 75.5159 46.2903L72.9125 48.2938C70.1135 64.0817 59.6337 55.6839 70.0891 48.0024C68.3021 48.51 67.0969 48.357 66.6789 47.3103C64.579 49.0612 63.1319 48.5731 61.912 47.3103C58.541 49.4158 56.5194 48.5804 55.2018 46.2174C53.9673 48.0825 51.5325 48.6848 48.5379 48.7042C46.7485 48.6921 46.3403 45.7414 47.9415 45.671L49.5915 45.5982C49.5964 44.5223 49.2933 43.8205 48.4181 43.8132C45.1058 48.4517 40.4856 50.7709 37.4177 45.4524C35.5183 46.147 34.3913 45.535 34.1542 43.4125C34.1664 42.0646 33.3524 42.4823 33.2008 43.3032L31.6241 47.2374C31.0643 49.0272 29.1038 48.7382 28.9107 47.1646C27.8595 39.9348 32.2719 36.5786 32.0641 40.0247C31.9223 42.3682 31.6119 43.0943 32.5408 41.2632C34.0809 38.3611 36.8677 37.8196 37.161 40.3161ZM19.5529 40.6197L18.1326 40.6075C17.0815 40.6245 16.837 41.9456 17.7293 42.4823L19.0249 42.9972L18.3331 45.9236C17.8809 47.8421 16.7466 47.949 16.6097 45.7414C16.1819 41.2826 16.5437 34.031 22.3666 33.4288C27.5759 32.8896 28.1993 38.6841 22.8433 40.7508L23.1733 36.5251C23.4104 34.6916 20.7654 34.4002 20.3498 36.4523L19.5798 40.4958L19.5529 40.6172V40.6197ZM22.2175 43.0118C26.713 42.4629 31.3088 40.6245 29.6245 34.6333C28.5635 30.857 24.3198 30.5607 20.0907 32.0834C17.0008 33.2758 14.6467 36.479 13.8205 39.9688C11.8819 48.1554 20.3963 57.9691 22.2175 43.0118Z" fill="var(--fill-0, white)"/>
<path id="Vector_4" fill-rule="evenodd" clip-rule="evenodd" d="M89.6748 40.8674L93.7254 40.5662C94.5076 40.5079 95.1481 41.1005 95.1481 41.8801C95.1481 42.6621 94.5076 43.3493 93.7254 43.4076L89.6748 43.7088C88.8925 43.767 88.252 43.1745 88.252 42.3949C88.252 41.6129 88.8925 40.9257 89.6748 40.8674Z" fill="var(--fill-0, white)"/>
<path id="Vector_5" d="M89.6748 40.8674L93.7254 40.5662C94.5076 40.5079 95.1481 41.1005 95.1481 41.8801C95.1481 42.6621 94.5076 43.3493 93.7254 43.4076L89.6748 43.7088C88.8925 43.767 88.252 43.1745 88.252 42.3949C88.252 41.6129 88.8925 40.9257 89.6748 40.8674Z" stroke="var(--stroke-0, white)" stroke-width="0.57" stroke-miterlimit="22.93"/>
<path id="Vector_6" fill-rule="evenodd" clip-rule="evenodd" d="M1.70773 40.9742L5.75834 40.6731C6.5406 40.6148 7.18107 41.2074 7.18107 41.9869C7.18107 42.7689 6.5406 43.4562 5.75834 43.5145L1.70773 43.8156C0.925471 43.8739 0.285 43.2813 0.285 42.5018C0.285 41.7198 0.925471 41.0325 1.70773 40.9742Z" fill="var(--fill-0, white)"/>
<path id="Vector_7" d="M1.70773 40.9742L5.75834 40.6731C6.5406 40.6148 7.18107 41.2074 7.18107 41.9869C7.18107 42.7689 6.5406 43.4562 5.75834 43.5145L1.70773 43.8156C0.925471 43.8739 0.285 43.2813 0.285 42.5018C0.285 41.7198 0.925471 41.0325 1.70773 40.9742Z" stroke="var(--stroke-0, white)" stroke-width="0.57" stroke-miterlimit="22.93"/>
<path id="Vector_8" d="M37.1879 18.5054V20.4798C37.1879 20.6183 37.2148 20.7373 37.2661 20.832C37.3174 20.9291 37.3957 21.002 37.4983 21.0554C37.601 21.1064 37.7281 21.1307 37.8797 21.1331C38.0313 21.1331 38.1584 21.1064 38.261 21.0554C38.3637 21.0044 38.4395 20.9291 38.4933 20.832C38.5446 20.7348 38.5715 20.6183 38.5715 20.4798V18.5054H38.1339V20.5065C38.1339 20.5673 38.1242 20.6183 38.1046 20.6547C38.085 20.6911 38.0581 20.7178 38.0215 20.7348C37.9848 20.7518 37.9433 20.7591 37.8944 20.7591C37.8455 20.7591 37.8015 20.7518 37.7672 20.7348C37.7306 20.7178 37.7037 20.6911 37.6841 20.6547C37.6646 20.6183 37.6548 20.5697 37.6548 20.5065V18.5054H37.1928H37.1879ZM35.5085 20.4774C35.5085 20.6158 35.5354 20.7348 35.5892 20.8295C35.6429 20.9267 35.7212 20.9995 35.8263 21.053C35.9314 21.104 36.0585 21.1282 36.2101 21.1307C36.3616 21.1307 36.4887 21.104 36.5939 21.053C36.699 21.002 36.7772 20.9267 36.831 20.8295C36.8848 20.7324 36.9117 20.6158 36.9117 20.4774V19.1296C36.9117 18.9911 36.8848 18.8721 36.831 18.775C36.7772 18.6779 36.699 18.605 36.5939 18.554C36.4887 18.503 36.3616 18.4787 36.2101 18.4763C36.0585 18.4763 35.9314 18.503 35.8263 18.554C35.7212 18.605 35.6429 18.6779 35.5892 18.775C35.5354 18.8721 35.5085 18.9887 35.5085 19.1296V20.4774ZM35.9705 19.1029C35.9705 19.0106 35.9925 18.945 36.0341 18.9061C36.0756 18.8673 36.1343 18.8479 36.2101 18.8479C36.2834 18.8479 36.3421 18.8673 36.3861 18.9061C36.4276 18.9474 36.4496 19.0106 36.4496 19.1029V20.5041C36.4496 20.5964 36.4276 20.662 36.3861 20.7008C36.3445 20.7397 36.2859 20.7591 36.2101 20.7591C36.1367 20.7591 36.0781 20.7397 36.0341 20.7008C35.9925 20.6595 35.9705 20.5964 35.9705 20.5041V19.1029ZM34.5404 18.8746C34.6211 18.8746 34.6822 18.8964 34.7189 18.9377C34.7556 18.9814 34.7751 19.0494 34.7751 19.1417V19.3967C34.7751 19.4647 34.7629 19.5206 34.7409 19.5594C34.7189 19.6007 34.6871 19.6274 34.6456 19.6468C34.604 19.6638 34.5551 19.6711 34.4964 19.6711H34.3155V18.8746H34.538H34.5404ZM35.2934 21.0991C35.2714 21.0505 35.2567 21.002 35.2518 20.9534C35.2469 20.9024 35.2445 20.8465 35.2445 20.7858V20.3851C35.2445 20.2953 35.2347 20.2127 35.2176 20.1398C35.198 20.067 35.1662 20.0063 35.1198 19.9528C35.0758 19.9018 35.0147 19.8606 34.9389 19.8314C35.0416 19.7877 35.1174 19.7246 35.1662 19.6371C35.2151 19.5497 35.2396 19.4404 35.2396 19.3068V19.1029C35.2396 18.9693 35.2176 18.8576 35.1687 18.7701C35.1222 18.6827 35.0465 18.6147 34.9462 18.571C34.8436 18.5273 34.714 18.5054 34.5551 18.5054H33.8584V21.0991H34.3204V20.0427H34.4793C34.5502 20.0427 34.6064 20.0524 34.6504 20.0743C34.6945 20.0961 34.7287 20.1301 34.7507 20.1787C34.7727 20.2273 34.7825 20.2928 34.7825 20.3705V20.7785C34.7825 20.832 34.7825 20.8733 34.7849 20.9073C34.7849 20.9413 34.7898 20.968 34.7947 20.9922C34.7971 21.0141 34.802 21.0335 34.8069 21.0481C34.8118 21.0651 34.8167 21.0797 34.824 21.0967H35.2958L35.2934 21.0991Z" fill="var(--fill-0, white)"/>
<path id="Vector_9" d="M62.2249 20.7858C62.2249 20.9242 62.2518 21.0408 62.3056 21.138C62.3594 21.2351 62.4376 21.308 62.5427 21.3614C62.6478 21.4124 62.775 21.4367 62.9265 21.4391C63.0781 21.4391 63.2052 21.4124 63.3103 21.3614C63.4154 21.3104 63.4937 21.2351 63.5474 21.138C63.6012 21.0408 63.6281 20.9242 63.6281 20.7858V19.438C63.6281 19.2996 63.6012 19.1806 63.5474 19.0834C63.4937 18.9863 63.4154 18.9134 63.3103 18.8624C63.2052 18.8114 63.0781 18.7871 62.9265 18.7847C62.775 18.7847 62.6478 18.8114 62.5427 18.8624C62.4376 18.9134 62.3594 18.9863 62.3056 19.0834C62.2518 19.1806 62.2249 19.2996 62.2249 19.438V20.7858ZM62.687 19.4113C62.687 19.319 62.709 19.2534 62.7505 19.2146C62.7921 19.1757 62.8507 19.1563 62.9265 19.1563C62.9999 19.1563 63.0585 19.1757 63.1025 19.2146C63.1441 19.2558 63.1661 19.319 63.1661 19.4113V20.8125C63.1661 20.9048 63.1441 20.9704 63.1025 21.0092C63.061 21.0481 63.0023 21.0675 62.9265 21.0675C62.8532 21.0675 62.7945 21.0481 62.7505 21.0092C62.709 20.968 62.687 20.9048 62.687 20.8125V19.4113ZM61.516 19.4526C61.516 19.5594 61.4989 19.6541 61.4647 19.7391C61.4329 19.8241 61.3889 19.9018 61.3327 19.9698C61.2789 20.0403 61.2178 20.1058 61.1542 20.169C61.0882 20.2321 61.0247 20.2953 60.9587 20.3584C60.8927 20.4215 60.834 20.4895 60.7802 20.56C60.7264 20.6304 60.6824 20.7105 60.6507 20.7955C60.6164 20.8805 60.5993 20.9777 60.5993 21.087V21.4051H61.9365V21.0335H61.0613C61.0613 21.0335 61.0589 21.0141 61.0589 21.0068C61.0589 20.9971 61.0589 20.9874 61.0589 20.9801C61.0589 20.9194 61.076 20.8611 61.1102 20.8028C61.142 20.7445 61.186 20.6887 61.2422 20.6304C61.296 20.5721 61.3571 20.5114 61.4231 20.4507C61.4891 20.3875 61.5551 20.322 61.6187 20.2515C61.6847 20.1811 61.7434 20.1058 61.7971 20.0233C61.8509 19.9407 61.8949 19.8508 61.9291 19.7537C61.9609 19.6566 61.9805 19.5497 61.9805 19.4331C61.9805 19.2947 61.9536 19.1757 61.9023 19.0786C61.8509 18.9814 61.7727 18.9086 61.67 18.8576C61.5674 18.8066 61.4402 18.7823 61.2887 18.7799C61.1371 18.7799 61.01 18.8066 60.9073 18.8576C60.8047 18.9086 60.7289 18.9814 60.6751 19.0786C60.6238 19.1757 60.5969 19.2947 60.5969 19.4331V19.6857H61.0344V19.4088C61.0344 19.3166 61.0564 19.251 61.098 19.2121C61.1396 19.1733 61.1982 19.1538 61.274 19.1538C61.3229 19.1538 61.3669 19.1611 61.4011 19.1781C61.4378 19.1951 61.4647 19.2267 61.4842 19.268C61.5038 19.3117 61.5136 19.3724 61.5136 19.4477L61.516 19.4526ZM58.8955 20.7858C58.8955 20.9242 58.9224 21.0408 58.9761 21.138C59.0299 21.2351 59.1081 21.308 59.2133 21.3614C59.3184 21.4124 59.4455 21.4367 59.5971 21.4391C59.7486 21.4391 59.8757 21.4124 59.9808 21.3614C60.086 21.3104 60.1642 21.2351 60.218 21.138C60.2717 21.0408 60.2986 20.9242 60.2986 20.7858V19.438C60.2986 19.2996 60.2717 19.1806 60.218 19.0834C60.1642 18.9863 60.086 18.9134 59.9808 18.8624C59.8757 18.8114 59.7486 18.7871 59.5971 18.7847C59.4455 18.7847 59.3184 18.8114 59.2133 18.8624C59.1081 18.9134 59.0299 18.9863 58.9761 19.0834C58.9224 19.1806 58.8955 19.2996 58.8955 19.438V20.7858ZM59.3599 19.4113C59.3599 19.319 59.3819 19.2534 59.4235 19.2146C59.465 19.1757 59.5237 19.1563 59.5995 19.1563C59.6728 19.1563 59.7315 19.1757 59.7755 19.2146C59.8171 19.2558 59.8391 19.319 59.8391 19.4113V20.8125C59.8391 20.9048 59.8171 20.9704 59.7755 21.0092C59.7339 21.0481 59.6753 21.0675 59.5995 21.0675C59.5262 21.0675 59.4675 21.0481 59.4235 21.0092C59.3819 20.968 59.3599 20.9048 59.3599 20.8125V19.4113ZM58.1865 19.4526C58.1865 19.5594 58.1694 19.6541 58.1352 19.7391C58.1034 19.8241 58.0594 19.9018 58.0032 19.9698C57.9494 20.0403 57.8883 20.1058 57.8248 20.169C57.7588 20.2321 57.6952 20.2953 57.6292 20.3584C57.5632 20.4215 57.5045 20.4895 57.4507 20.56C57.397 20.6304 57.353 20.7105 57.3212 20.7955C57.287 20.8805 57.2698 20.9777 57.2698 21.087V21.4051H58.607V21.0335H57.7319C57.7319 21.0335 57.7294 21.0141 57.7294 21.0068C57.7294 20.9971 57.7294 20.9874 57.7294 20.9801C57.7294 20.9194 57.7465 20.8611 57.7808 20.8028C57.8125 20.7445 57.8565 20.6887 57.9128 20.6304C57.9665 20.5721 58.0277 20.5114 58.0937 20.4507C58.1597 20.3875 58.2257 20.322 58.2892 20.2515C58.3552 20.1811 58.4139 20.1058 58.4677 20.0233C58.5214 19.9407 58.5655 19.8508 58.5997 19.7537C58.6315 19.6566 58.651 19.5497 58.651 19.4331C58.651 19.2947 58.6241 19.1757 58.5728 19.0786C58.5215 18.9814 58.4432 18.9086 58.3406 18.8576C58.2379 18.8066 58.1108 18.7823 57.9592 18.7799C57.8076 18.7799 57.6805 18.8066 57.5779 18.8576C57.4752 18.9086 57.3994 18.9814 57.3456 19.0786C57.2943 19.1757 57.2674 19.2947 57.2674 19.4331V19.6857H57.705V19.4088C57.705 19.3166 57.727 19.251 57.7685 19.2121C57.8101 19.1733 57.8688 19.1538 57.9445 19.1538C57.9934 19.1538 58.0374 19.1611 58.0717 19.1781C58.1083 19.1951 58.1352 19.2267 58.1548 19.268C58.1743 19.3117 58.1841 19.3724 58.1841 19.4477L58.1865 19.4526Z" fill="var(--fill-0, white)"/>
<path id="Vector_10" fill-rule="evenodd" clip-rule="evenodd" d="M49.6771 23.7389C50.9629 23.9259 48.6919 29.3561 47.6237 26.709C47.4452 26.2039 46.328 23.9963 47.0003 23.7413H49.6771V23.7389Z" fill="var(--fill-0, white)"/>
<path id="Vector_11" fill-rule="evenodd" clip-rule="evenodd" d="M45.9663 18.8309L46.5163 23.1658H50.3298C51.0851 21.0335 51.6278 19.268 50.6231 18.3039L50.7331 17.3932C50.7967 16.7229 50.6085 16.2785 50.1831 16.0453L50.8065 15.7369C52.2365 14.4522 51.6034 13.8038 50.2369 13.4079C49.7846 13.2768 49.1393 12.7182 48.5526 12.7474C48.0612 12.7717 47.5161 13.3569 47.2448 13.3982C45.3747 13.6799 44.3406 14.6611 47.543 17.194C46.4576 17.2766 45.8783 17.7793 45.9663 18.8333" fill="var(--fill-0, white)"/>
<path id="Vector_12" fill-rule="evenodd" clip-rule="evenodd" d="M52.0238 68.0985L53.1239 68.7251C53.3659 68.8635 53.4392 69.1914 53.2877 69.4536C53.1361 69.7159 52.8134 69.8204 52.5714 69.6819L51.4714 69.0554C51.2294 68.9169 51.156 68.5891 51.3076 68.3268C51.4592 68.0645 51.7818 67.9601 52.0238 68.0985ZM47.6823 64.3537L46.1936 63.5062C46.1227 63.4673 46.0543 63.4333 45.9834 63.4017C45.3698 63.0642 44.5973 63.2123 44.0742 63.7174L43.1184 63.1759C42.891 63.0472 42.5879 63.1419 42.4461 63.3896C42.3777 63.5062 42.3581 63.6373 42.3801 63.7587C42.3997 63.8972 42.4779 64.021 42.6026 64.0914L43.5095 64.6063C43.5095 64.6063 43.5315 64.6184 43.5437 64.6233C43.463 64.9414 43.4728 65.2814 43.595 65.5996C43.7124 65.942 43.9422 66.2358 44.2673 66.4204L44.4506 66.5248L45.6314 67.1951L45.9907 66.6973L44.5778 65.8934C44.084 65.6141 43.9324 64.9439 44.2428 64.4096C44.5509 63.8729 45.2084 63.664 45.7022 63.9457L47.3156 64.8637L47.6823 64.3537ZM50.5718 69.3541C50.4764 68.2879 50.9091 67.6492 51.7134 67.3117L51.7672 67.3432C52.019 67.4865 52.1901 67.7318 52.2536 68.0159L52.8061 68.3292C52.8232 67.7998 52.5983 67.2437 52.2219 66.9377L49.6649 65.483L49.3055 65.9954L51.2123 67.0785C50.4716 67.4987 50.1024 68.1519 50.1073 69.0384L48.0123 67.8459L47.6603 68.3487L50.1904 69.7864L50.3175 69.8592L50.4227 69.9199V69.9151C50.98 70.1749 51.6474 70.0559 52.1387 69.6528L51.6303 69.3638C51.3027 69.5386 50.914 69.5508 50.6011 69.3711L50.5742 69.3541H50.5718Z" fill="var(--fill-0, white)"/>
<path id="Vector_13" fill-rule="evenodd" clip-rule="evenodd" d="M48.4964 65.1066C48.3815 65.0264 48.2201 65.0531 48.1395 65.1673L45.3722 69.0675C45.2916 69.1816 45.3185 69.3419 45.4333 69.4221C45.5482 69.5022 45.7096 69.4755 45.7902 69.3614L48.5575 65.4611C48.6381 65.347 48.6113 65.1867 48.4964 65.1066ZM50.0927 64.1424C50.9947 63.4333 51.9481 62.0782 52.3147 60.9781C52.6912 62.6125 51.574 63.8267 50.0927 64.1424ZM51.7574 60.4146C51.8967 60.5142 51.9285 60.7061 51.8307 60.8469L49.8458 63.7126C49.748 63.8534 49.55 63.885 49.4106 63.7854C49.2713 63.6859 49.2395 63.494 49.3373 63.3532L51.3223 60.4875C51.42 60.3466 51.618 60.3151 51.7574 60.4146ZM48.7628 63.1953C49.1686 62.1243 50.078 60.7401 51.0216 60.0576C49.3397 60.2034 48.6137 61.6993 48.7628 63.1953ZM44.7 69.0286C44.1671 70.2041 45.4529 70.7796 46.1667 69.9393L49.6869 64.9123C52.6912 64.4679 54.3315 61.1335 52.437 59.9216C49.6135 58.1148 47.9097 60.9878 48.1101 64.293L44.7 69.0286Z" fill="var(--fill-0, white)"/>
</g>
</svg>
